<svg width="34" height="35" viewBox="0 0 34 35" fill="none" xmlns="http://www.w3.org/2000/svg">
<path d="M11 12.5V6.18951C11 4.22334 12.098 2.40111 13.8241 1.4596V1.4596C15.4677 0.563048 17.4861 0.59163 19.0915 1.55492V1.55492C20.5973 2.45837 21.5553 4.05129 21.6476 5.80485L22 12.5H28.9098C30.8037 12.5 32.535 13.57 33.382 15.2639V15.2639C34.0858 16.6716 34.0858 18.3284 33.382 19.7361V19.7361C32.535 21.43 30.8037 22.5 28.9098 22.5H22V29.0819C22 30.0108 21.7549 30.9233 21.2895 31.7273V31.7273C19.2082 35.3222 13.9657 35.1848 12.031 31.5089V31.5089C11.6823 30.8464 11.4759 30.1136 11.4291 29.3664L11 22.5H5.10328C3.47171 22.5 1.94276 21.7039 1.00712 20.3673V20.3673C-0.198002 18.6457 -0.198002 16.3543 1.00712 14.6327V14.6327C1.94276 13.2961 3.47171 12.5 5.10328 12.5H11Z" fill="#22A4FC"/>
</svg>
