<svg width="32" height="32" viewBox="0 0 32 32" fill="none" xmlns="http://www.w3.org/2000/svg">
<path fill-rule="evenodd" clip-rule="evenodd" d="M28.8 13.9304V10.9218H25.6V13.9304H22.4V16.9397H25.6V19.9483H28.8V16.9397H32V13.9304H28.8ZM19.84 13.9304C19.9264 13.9304 20 15.2422 20 15.8726C20 21.3544 16.0928 25.5999 10.2032 25.5999C4.56322 25.5999 0 21.3051 0 16.0022C0 10.6979 4.56322 6.3999 10.2032 6.3999C12.9584 6.3999 15.2624 7.32985 17.04 8.89287L14.2704 11.3702C13.5136 10.6842 12.1856 9.82803 10.2032 9.82803C6.72002 9.82803 3.87681 12.4174 3.87681 15.7616C3.87681 19.1058 6.72002 21.5726 10.2032 21.5726C14.2416 21.5726 15.7584 18.4441 15.9904 16.9397H9.6V13.9304H19.84Z" fill="white"/>
</svg>
