<svg width="21" height="21" viewBox="0 0 21 21" fill="none" xmlns="http://www.w3.org/2000/svg">
<path fill-rule="evenodd" clip-rule="evenodd" d="M3.35476 12.327L1.94185 13.7419C1.55795 14.1264 1.55795 14.7499 1.94251 15.1338C2.32707 15.5177 2.95051 15.5177 3.33442 15.1331L5.08398 13.3823C6.32954 14.0274 7.83367 14.5674 9.52876 14.7217V17.0625C9.52876 17.6059 9.96976 18.0469 10.5131 18.0469C11.0565 18.0469 11.4975 17.6059 11.4975 17.0625V14.719C12.9065 14.5871 14.1822 14.1901 15.2867 13.6881L17.386 15.7894C17.7699 16.1739 18.3934 16.1739 18.7779 15.79C19.1625 15.4061 19.1625 14.7827 18.7786 14.3981L17.0861 12.7044C18.7858 11.6117 19.7709 10.4934 19.7709 10.4934C20.1292 10.0853 20.0891 9.46314 19.6809 9.10417C19.2728 8.74585 18.6506 8.78589 18.2917 9.19407C18.2917 9.19407 15.1325 12.7969 10.5 12.7969C5.86754 12.7969 2.70835 9.19407 2.70835 9.19407C2.34939 8.78589 1.72726 8.74585 1.31907 9.10417C0.910885 9.46314 0.870854 10.0853 1.22917 10.4934C1.22917 10.4934 2.00026 11.3689 3.35476 12.327Z" fill="#A4A4A4"/>
</svg>
