<svg width="29" height="29" viewBox="0 0 29 29" fill="none" xmlns="http://www.w3.org/2000/svg">
<path d="M20.1025 0H8.23083C3.07417 0 0 3.07417 0 8.23083V20.0883C0 25.2592 3.07417 28.3333 8.23083 28.3333H20.0883C25.245 28.3333 28.3192 25.2592 28.3192 20.1025V8.23083C28.3333 3.07417 25.2592 0 20.1025 0ZM21.25 21.9158C18.8275 21.9158 16.5608 20.8675 14.7475 18.9267C12.6933 20.7825 10.0158 21.9158 7.08333 21.9158C6.5025 21.9158 6.02083 21.4342 6.02083 20.8533C6.02083 20.2725 6.5025 19.7908 7.08333 19.7908C11.9992 19.7908 16.065 15.895 16.5892 10.9083H14.1667H7.0975C6.51667 10.9083 6.035 10.4267 6.035 9.84583C6.035 9.265 6.51667 8.7975 7.0975 8.7975H13.1042V7.48C13.1042 6.89917 13.5858 6.4175 14.1667 6.4175C14.7475 6.4175 15.2292 6.89917 15.2292 7.48V8.7975H17.6233C17.6517 8.7975 17.68 8.78333 17.7083 8.78333C17.7367 8.78333 17.765 8.7975 17.7933 8.7975H21.2358C21.8167 8.7975 22.2983 9.27917 22.2983 9.86C22.2983 10.4408 21.8167 10.9225 21.2358 10.9225H18.7142C18.5017 13.345 17.595 15.5692 16.2067 17.3825C17.6233 18.955 19.3942 19.805 21.25 19.805C21.8308 19.805 22.3125 20.2867 22.3125 20.8675C22.3125 21.4483 21.8308 21.9158 21.25 21.9158Z" fill="#FF4D5A"/>
</svg>
