<svg width="25" height="25" viewBox="0 0 25 25" fill="none" xmlns="http://www.w3.org/2000/svg">
<path fill-rule="evenodd" clip-rule="evenodd" d="M12.5 18.75C15.5203 18.75 17.9688 16.3016 17.9688 13.2812V5.46875C17.9688 2.44844 15.5203 0 12.5 0C9.47969 0 7.03125 2.44844 7.03125 5.46875V13.2812C7.03125 16.3016 9.47969 18.75 12.5 18.75ZM21.0938 14.8438H19.5312C18.8195 17.9742 15.8453 20.3125 12.5 20.3125C9.15469 20.3125 6.18047 17.9742 5.46875 14.8438H3.90625C4.59609 18.593 7.86172 21.4922 11.7188 21.8398V23.4375H10.9375C10.5062 23.4375 10.1562 23.7875 10.1562 24.2188C10.1562 24.6508 10.5062 25 10.9375 25H14.0625C14.4937 25 14.8438 24.6508 14.8438 24.2188C14.8438 23.7875 14.4937 23.4375 14.0625 23.4375H13.2812V21.8398C17.1383 21.4922 20.4039 18.593 21.0938 14.8438Z" fill="white"/>
</svg>
