<svg width="33" height="33" viewBox="0 0 33 33" fill="none" xmlns="http://www.w3.org/2000/svg">
<g clip-path="url(#clip0_119_74)">
<path d="M16.2072 25.4806C11.2844 25.4357 7.28729 21.4387 7.24253 16.5159C7.22123 14.1756 8.18667 11.9154 9.80296 10.2426C11.4915 8.49528 13.8132 7.57299 16.2072 7.55121C18.4957 7.53039 18.4977 3.97973 16.2072 4.00058C9.34837 4.063 3.75433 9.65692 3.6919 16.5159C3.62948 23.3754 9.44235 28.9696 16.2072 29.0312C18.4977 29.0519 18.4957 25.5014 16.2072 25.4806Z" fill="#4C5AA3"/>
<path d="M16.7933 7.55121C21.7161 7.596 25.7133 11.5931 25.7581 16.5159C25.7794 18.8562 24.8139 21.1164 23.1976 22.789C21.5091 24.5365 19.1873 25.4588 16.7933 25.4806C14.5048 25.5014 14.5028 29.0519 16.7933 29.0312C23.6522 28.9688 29.2463 23.3748 29.3087 16.5159C29.3711 9.65624 23.5581 4.0622 16.7933 4.00058C14.5028 3.97973 14.5048 7.53042 16.7933 7.55121Z" fill="#D860B5"/>
<path d="M13.2342 16.4537C13.2329 14.6109 14.6116 13.1319 16.4249 13.0608C18.2668 12.9885 19.7488 14.4917 19.8179 16.2515C19.8558 17.2182 20.5967 18.0268 21.5931 18.0268C22.5322 18.0268 23.4065 17.219 23.3685 16.2515C23.2209 12.4926 20.2158 9.50765 16.4249 9.51019C12.6628 9.51271 9.68105 12.7719 9.6836 16.4537C9.68521 18.7433 13.2358 18.7435 13.2342 16.4537Z" fill="#FD9E22"/>
<path d="M19.768 16.6296C19.7331 18.4385 18.2839 19.8875 16.4751 19.9224C14.6654 19.9573 13.2162 18.386 13.1824 16.6296C13.1383 14.3429 9.58761 14.3386 9.63176 16.6296C9.70452 20.405 12.6998 23.4002 16.4751 23.473C20.2504 23.5458 23.248 20.2952 23.3186 16.6296C23.3628 14.3386 19.8122 14.3429 19.768 16.6296Z" fill="#F35A50"/>
<path d="M32.7003 16.5158C32.7003 17.2473 32.087 17.8403 31.3303 17.8403H25.5457C24.789 17.8403 24.1756 17.2474 24.1756 16.5158C24.1756 15.7844 24.789 15.1915 25.5457 15.1915H31.3303C32.087 15.1915 32.7003 15.7844 32.7003 16.5158ZM8.8163 16.5744C8.8163 17.3058 8.20293 17.8987 7.44612 17.8987H1.66149C0.904872 17.8987 0.291504 17.3058 0.291504 16.5744C0.291504 15.8429 0.904872 15.2499 1.66149 15.2499H7.44612C8.20293 15.2499 8.8163 15.8429 8.8163 16.5744ZM16.4623 8.79017C15.731 8.79017 15.138 8.17693 15.138 7.42012V1.63548C15.138 0.878902 15.731 0.265533 16.4623 0.265533C17.1939 0.265533 17.7869 0.878902 17.7869 1.63548V7.42012C17.7869 8.1769 17.1939 8.79023 16.4623 8.79017ZM16.4623 32.8426C15.731 32.8426 15.138 32.2293 15.138 31.4726V25.6879C15.138 24.9313 15.731 24.3179 16.4623 24.3179C17.1939 24.3179 17.7869 24.9313 17.7869 25.6879V31.4726C17.7869 32.2293 17.1939 32.8426 16.4623 32.8426Z" fill="#F9D73B"/>
</g>
<defs>
<clipPath id="clip0_119_74">
<rect width="33" height="33" fill="white"/>
</clipPath>
</defs>
</svg>
