<svg width="26" height="26" viewBox="0 0 26 26" fill="none" xmlns="http://www.w3.org/2000/svg">
<path d="M23.0678 3.15692C19.8687 4.48188 6.15164 10.1637 2.36162 11.7122C-0.180135 12.7041 1.30784 13.6341 1.30784 13.6341C1.30784 13.6341 3.47754 14.378 5.33758 14.936C7.19736 15.4939 8.18926 14.8741 8.18926 14.8741L16.9305 8.98456C20.0302 6.87674 19.2863 8.6125 18.5422 9.35662C16.9305 10.9686 14.2647 13.5101 12.0328 15.5561C11.0409 16.4239 11.5368 17.1678 11.971 17.5399C13.5827 18.9038 17.9845 21.6936 18.2323 21.8795C19.5419 22.8067 22.118 24.1413 22.5098 21.3216L24.0597 11.5885C24.5557 8.30284 25.0516 5.265 25.1134 4.39712C25.2996 2.28904 23.0678 3.15692 23.0678 3.15692Z" fill="#3390EC"/>
</svg>
