<svg width="26" height="26" viewBox="0 0 26 26" fill="none" xmlns="http://www.w3.org/2000/svg">
<g clip-path="url(#clip0_389_48)">
<path d="M16.99 0H9.00884C1.72559 0 -0.000976562 1.72656 -0.000976562 9.00981V16.991C-0.000976562 24.2743 1.72559 26.0008 9.00884 26.0008H16.99C24.2733 26.0008 25.9998 24.2743 25.9998 16.991V9.00981C25.9998 1.72656 24.2562 0 16.99 0ZM20.9891 18.5477H19.1017C18.3867 18.5477 18.1665 17.9806 16.8803 16.6774C15.7631 15.5943 15.2683 15.4505 14.9929 15.4505C14.6037 15.4505 14.4932 15.5602 14.4932 16.094V17.7994C14.4932 18.2569 14.3494 18.5315 13.1388 18.5315C11.1368 18.5315 8.9154 17.3209 7.35784 15.0654C5.0089 11.7601 4.36621 9.28444 4.36621 8.77256C4.36621 8.49712 4.4759 8.23956 5.00484 8.23956H6.89634C7.3749 8.23956 7.5569 8.45975 7.74296 8.97162C8.67815 11.6716 10.2357 14.0367 10.8784 14.0367C11.1156 14.0367 11.2253 13.9271 11.2253 13.3217V10.5332C11.153 9.24706 10.4762 9.13656 10.4762 8.67994C10.4762 8.45975 10.6582 8.23956 10.9499 8.23956H13.9245C14.3266 8.23956 14.4745 8.45975 14.4745 8.93344V12.6953C14.4745 13.1016 14.6565 13.2454 14.7662 13.2454C15.0035 13.2454 15.2066 13.1016 15.6461 12.6612C17.0046 11.1378 17.978 8.78881 17.978 8.78881C18.1048 8.51338 18.325 8.25581 18.8035 8.25581H20.695C21.2621 8.25581 21.3889 8.5475 21.2621 8.95375C21.0249 10.0539 18.7101 13.3209 18.7101 13.3209C18.511 13.6508 18.4346 13.7946 18.7101 14.1627C18.9132 14.4381 19.5738 15.0093 20.0133 15.5212C20.8218 16.4393 21.4433 17.2096 21.6091 17.7426C21.7951 18.2715 21.5205 18.5469 20.9867 18.5469L20.9891 18.5477Z" fill="#0077FF"/>
</g>
<defs>
<clipPath id="clip0_389_48">
<rect width="26" height="26" fill="white"/>
</clipPath>
</defs>
</svg>
