<svg width="25" height="25" viewBox="0 0 25 25" fill="none" xmlns="http://www.w3.org/2000/svg">
<g clip-path="url(#clip0_701_2)">
<path fill-rule="evenodd" clip-rule="evenodd" d="M7.83325 0.139641C9.10553 -0.430484 10.2078 0.857398 9.80974 1.97561C8.45922 5.76986 9.28899 10.0793 12.0923 12.8815C14.9098 15.698 19.2477 16.5257 23.0543 15.151C24.1619 14.751 25.4148 15.8424 24.8672 17.0844C24.851 17.1211 24.8347 17.1577 24.8182 17.1944C23.8436 19.3556 22.2846 21.388 20.2676 22.7507C18.1177 24.2031 15.5824 24.9791 12.9877 24.9791H12.9864C9.96911 24.9759 7.04683 23.9234 4.72056 22.0023C2.39428 20.0813 0.808872 17.411 0.236246 14.4493C-0.336381 11.4876 0.139463 8.41909 1.58217 5.76973C2.94985 3.25812 5.24968 1.30634 7.79584 0.156461L7.83325 0.139641Z" fill="#2E6850"/>
</g>
<defs>
<clipPath id="clip0_701_2">
<rect width="25" height="25" fill="white"/>
</clipPath>
</defs>
</svg>
