<svg width="55" height="55" viewBox="0 0 55 55" fill="none" xmlns="http://www.w3.org/2000/svg">
<path d="M25.2085 9.16669H13.7502C11.319 9.16669 8.98758 10.1324 7.26848 11.8515C5.54941 13.5706 4.5835 15.9022 4.5835 18.3334V41.25C4.5835 43.6813 5.54941 46.0128 7.26848 47.7318C8.98758 49.451 11.319 50.4167 13.7502 50.4167H38.9585C44.0231 50.4167 45.8335 46.2917 45.8335 41.25V29.7917" stroke="#444444" stroke-width="3.4375" stroke-linecap="round" stroke-linejoin="round"/>
<path d="M30 16H31.5V14.5V8.18952C31.5 6.78074 32.2907 5.45918 33.5423 4.77645C34.7262 4.13069 36.1774 4.15571 37.3198 4.84116C38.3978 5.48794 39.0836 6.62831 39.1497 7.88369L39.5021 14.5788L39.5769 16H41H47.9098C49.2355 16 50.4475 16.749 51.0403 17.9348C51.533 18.9201 51.533 20.0799 51.0403 21.0652C50.4475 22.251 49.2355 23 47.9098 23H41H39.5V24.5V31.0819C39.5 31.7469 39.3245 32.4002 38.9913 32.9757C37.5104 35.5337 33.7519 35.4579 32.3584 32.8103C32.1078 32.3341 31.9596 31.8074 31.9262 31.2728L31.4971 24.4064L31.4092 23H30H24.1033C22.9612 23 21.8909 22.4428 21.236 21.5071C20.3924 20.302 20.3924 18.698 21.236 17.4929C21.8909 16.5572 22.9612 16 24.1033 16H30Z" stroke="#444444" stroke-width="2"/>
</svg>
