<svg width="584" height="648" viewBox="0 0 584 648" fill="none" xmlns="http://www.w3.org/2000/svg">
<path d="M391.526 260.156V283.205C388.655 288.76 385.838 295.979 383.08 305.02C383.08 305.02 387.305 319.126 391.526 336.17V384.921H286.081L278.757 395.31H258.681V440.974H291.414V546.079H298.214V440.974H317.436V546.079H324.236V440.974H390.875V546.079H397.675V440.974H423.515V546.079H430.314L430.043 440.974H437.19V260.156H391.526Z" fill="#CCCCCC"/>
<path d="M236.665 203.618C232.164 198.36 225.803 196.42 222.457 199.285C219.111 202.149 220.047 208.733 224.55 213.993C226.32 216.119 228.573 217.79 231.121 218.866L250.472 240.905L260.621 231.604L240.467 210.865C239.796 208.18 238.493 205.696 236.665 203.618Z" fill="#FFB6B6"/>
<path d="M381.907 230.494C381.907 230.494 386.139 249.867 369.34 256.044C352.542 262.221 309.01 285.94 305.787 284.853C302.565 283.766 292.023 289.072 279.581 277.752C267.138 266.432 237.079 232.304 237.079 232.304L249.443 215.512L295.996 247.671C295.996 247.671 296.991 247.375 301.404 246.918C305.817 246.46 302.366 249.244 309.269 243.677C316.171 238.109 360.227 218.156 360.227 218.156C360.227 218.156 373.155 211.75 381.907 230.494Z" fill="#2F2E41"/>
<path d="M272.053 500.736L278.897 522.789L259.886 535.716L246.198 523.549C246.198 523.549 251.521 504.539 249.24 499.976L272.053 500.736Z" fill="#FFB6B6"/>
<path d="M368.628 188.199L379.531 212.252L347.629 232.083L345.815 203.408L368.628 188.199Z" fill="#FFB6B6"/>
<path opacity="0.1" d="M368.628 188.199L379.531 212.252L347.629 232.083L345.815 203.408L368.628 188.199Z" fill="black"/>
<path d="M356.089 209.642C368.884 209.642 379.255 199.27 379.255 186.476C379.255 173.682 368.884 163.31 356.089 163.31C343.295 163.31 332.923 173.682 332.923 186.476C332.923 199.27 343.295 209.642 356.089 209.642Z" fill="#FFB6B6"/>
<path d="M347.336 226.981L380.034 204.929L374.711 391.234C374.711 391.234 347.716 344.468 327.184 342.187C327.184 342.187 329.465 336.864 330.986 333.822C332.507 330.78 334.788 315.571 334.788 315.571L345.434 233.445L347.336 226.981Z" fill="#2AB07A"/>
<path d="M373.57 419.751L344.674 317.853C344.674 317.853 349.236 235.726 380.034 204.929L387.258 215.955C387.258 215.955 394.401 217.015 393.111 221.808C391.821 226.601 421.477 403.021 421.477 403.021H390.74C390.74 403.021 388.018 419.751 373.57 419.751Z" fill="#2F2E41"/>
<path d="M347.336 226.981V223.939C347.336 223.939 333.268 225.08 332.507 233.445C331.747 241.81 325.663 274.508 331.747 294.279L324.142 306.446L318.819 335.343L335.549 339.905L344.674 269.733C344.674 269.733 350.757 232.684 347.336 226.981Z" fill="#2F2E41"/>
<path d="M374.336 371.843C374.336 371.843 387.264 409.105 359.888 409.865C332.513 410.625 289.866 410.625 289.866 410.625L268.636 422.032L274.72 504.919L232.136 505.679C232.136 505.679 218.448 403.782 230.615 391.615C242.782 379.448 277.761 366.52 277.761 366.52L318.064 345.989L329.399 332.229L374.336 371.843Z" fill="#2F2E41"/>
<path d="M375.882 199.986C377.498 199.412 392.619 181.69 380.034 169.949C380.034 169.949 375.13 155.606 355.573 157.111C336.016 158.615 330.75 169.312 330.75 174.87C330.75 180.429 335.929 186.678 335.929 186.678C335.929 186.678 332.255 171.402 340.529 172.155C348.803 172.907 346.547 175.916 352.564 174.411C358.582 172.907 364.599 175.163 364.599 175.163L370.617 177.42V186.597C370.617 186.597 373.241 184.492 373.433 186.597C373.626 188.703 375.882 199.986 375.882 199.986Z" fill="#2F2E41"/>
<path d="M245.063 387.812L244.303 411.386L214.646 406.063C214.646 406.063 227.38 385.106 225.576 379.235L245.063 387.812Z" fill="#FFB6B6"/>
<path d="M242.021 406.063C242.021 406.063 247.344 406.063 247.344 409.104C247.344 412.146 255.709 435.72 239.74 436.48C223.771 437.24 224.531 434.199 224.531 434.199C224.531 434.199 179.666 454.73 163.697 424.313C163.697 424.313 159.895 416.709 169.02 415.188C178.145 413.667 214.646 400.934 214.646 400.934C214.646 400.934 235.938 409.104 242.021 406.063Z" fill="#2F2E41"/>
<path d="M272.819 522.789C272.819 522.789 278.142 516.34 278.902 516.903C279.663 517.466 296.392 536.477 284.986 541.8C273.579 547.123 267.496 549.404 267.496 549.404L264.454 544.841C264.454 544.841 241.641 566.894 206.661 551.685C206.661 551.685 203.62 544.841 210.464 543.32C217.307 541.8 246.204 518.627 246.204 518.627C246.204 518.627 258.371 527.351 264.454 525.831C270.538 524.31 272.819 522.789 272.819 522.789Z" fill="#2F2E41"/>
<path d="M327.19 339.905C327.19 339.905 256.089 303.785 250.006 303.785C243.922 303.785 232.294 306.288 229.744 317.964C227.193 329.639 211.984 385.911 211.984 385.911L249.246 395.037L263.694 354.734L287.267 376.026L327.19 352.219V339.905Z" fill="#2F2E41"/>
<path d="M293.705 325.951C286.857 326.957 281.825 331.305 282.465 335.663C283.105 340.021 289.175 342.738 296.026 341.731C298.768 341.367 301.382 340.351 303.651 338.769L332.613 334.144L330.153 320.599L301.863 326.597C299.234 325.733 296.437 325.512 293.705 325.951Z" fill="#FFB6B6"/>
<path d="M393.862 217.387C393.862 217.387 412.509 224.133 408.781 241.639C405.054 259.145 401.919 308.619 399.281 310.766C396.644 312.913 395.515 324.661 379.305 329.155C363.095 333.649 316.579 353.539 316.579 353.539L310.579 321.479L362.602 299.232C362.602 299.232 362.883 298.232 364.848 294.255C366.813 290.277 367.329 294.681 366.298 285.873C365.266 277.065 371.867 229.154 371.867 229.154C371.867 229.154 373.338 214.801 393.862 217.387Z" fill="#2F2E41"/>
<path d="M168.924 157V97.7579H185.681V143.713H213.948V157H168.924Z" fill="#22A4FC"/>
<path d="M234.808 157L209.503 97.7579H227.614L248.941 149.045H238.278L260.113 97.7579H276.701L251.311 157H234.808Z" fill="#2AB07A"/>
</svg>
