<svg width="41" height="41" viewBox="0 0 41 41" fill="none" xmlns="http://www.w3.org/2000/svg">
<path d="M30.2835 33.1596L10.9043 33.0651C6.1173 32.4387 2.47729 28.3659 2.47729 23.4559C2.47729 18.3261 6.5034 14.0954 11.5626 13.774C13.4931 9.71304 17.5704 7.11919 22.1007 7.11919C28.5169 7.11919 33.7399 12.3246 33.7693 18.7341C36.1619 20.1172 37.6257 22.6304 37.6257 25.4213C37.6257 29.2403 34.8381 32.4463 31.1439 33.0491L30.2835 33.1596ZM12.2348 31.4388L30.2344 31.4198C33.4143 31.2383 35.9048 28.6033 35.9048 25.4213C35.9048 23.1026 34.6041 21.0301 32.5102 20.0125L32.0031 19.7659L32.038 19.0088C32.043 18.9353 32.0485 18.8622 32.0485 18.7878C32.0485 13.3026 27.5858 8.83999 22.1006 8.83999C18.0796 8.83999 14.477 11.2372 12.9225 14.9474L12.7028 15.4721L12.1339 15.4755C7.75829 15.5011 4.19809 19.081 4.19809 23.4558C4.19809 27.7218 7.53938 31.2194 11.8045 31.4186L12.2348 31.4388Z" fill="#1EAB77"/>
<path d="M20.9117 15.3428L14.5325 21.722L15.9029 23.0925L19.9425 19.0529V27.9231H21.8805V19.0529L25.9201 23.0925L27.291 21.722L20.9117 15.3428Z" fill="#1EAB77"/>
</svg>
