<svg width="26" height="26" viewBox="0 0 26 26" fill="none" xmlns="http://www.w3.org/2000/svg">
<g clip-path="url(#clip0_389_45)">
<path d="M15.5071 15.5071C13.4643 17.615 13.3157 20.2429 13.1393 26C18.5064 26 22.2114 25.9814 24.1243 24.1243C25.9814 22.2114 26 18.33 26 13.1393C20.2429 13.325 17.615 13.4643 15.5071 15.5071ZM0 13.1393C0 18.33 0.0185714 22.2114 1.87571 24.1243C3.78857 25.9814 7.49357 26 12.8607 26C12.675 20.2429 12.5357 17.615 10.4929 15.5071C8.385 13.4643 5.75714 13.3157 0 13.1393ZM12.8607 0C7.50286 0 3.78857 0.0185714 1.87571 1.87571C0.0185714 3.78857 0 7.67 0 12.8607C5.75714 12.675 8.385 12.5357 10.4929 10.4929C12.5357 8.385 12.6843 5.75714 12.8607 0ZM15.5071 10.4929C13.4643 8.385 13.3157 5.75714 13.1393 0C18.5064 0 22.2114 0.0185714 24.1243 1.87571C25.9814 3.78857 26 7.67 26 12.8607C20.2429 12.675 17.615 12.5357 15.5071 10.4929Z" fill="#2C3036"/>
<path d="M26 13.1393V12.8607C20.2429 12.675 17.615 12.5357 15.5071 10.4929C13.4643 8.385 13.3157 5.75714 13.1393 0H12.8607C12.675 5.75714 12.5357 8.385 10.4929 10.4929C8.385 12.5357 5.75714 12.6843 0 12.8607V13.1393C5.75714 13.325 8.385 13.4643 10.4929 15.5071C12.5357 17.615 12.6843 20.2429 12.8607 26H13.1393C13.325 20.2429 13.4643 17.615 15.5071 15.5071C17.615 13.4643 20.2429 13.3157 26 13.1393Z" fill="white"/>
</g>
<defs>
<clipPath id="clip0_389_45">
<rect width="26" height="26" fill="white"/>
</clipPath>
</defs>
</svg>
