<svg width="26" height="26" viewBox="0 0 26 26" fill="none" xmlns="http://www.w3.org/2000/svg">
<path fill-rule="evenodd" clip-rule="evenodd" d="M6.01284 2.51913V1.35456C6.01284 0.7114 6.53422 0.190002 7.1774 0.190002C7.82056 0.190002 8.34196 0.7114 8.34196 1.35456V2.51913H10.6511C10.6634 2.51893 10.6757 2.51893 10.6882 2.51913H13.0002C13.6434 2.51913 14.1648 3.04052 14.1648 3.68369C14.1648 4.32685 13.6434 4.84825 13.0002 4.84825H11.6548C11.077 7.79764 9.834 10.52 7.93561 13.0101C9.18062 14.3907 10.6792 15.6063 12.4349 16.6598C12.9865 16.9908 13.1653 17.7061 12.8344 18.2576C12.5035 18.8091 11.7881 18.9879 11.2366 18.657C9.38238 17.5445 7.77545 16.2589 6.41891 14.8022C5.16441 16.1451 3.70135 17.4133 2.03148 18.606C1.50812 18.9799 0.780778 18.8587 0.406954 18.3353C0.0331149 17.8119 0.154336 17.0846 0.677703 16.7108C2.31884 15.5386 3.73337 14.2983 4.92351 12.989C3.98332 11.6961 3.20913 10.2908 2.60258 8.77444C2.36371 8.17727 2.65417 7.49954 3.25134 7.26066C3.84851 7.0218 4.52625 7.31226 4.76512 7.90943C5.21954 9.04547 5.78005 10.1103 6.44769 11.1046C7.83539 9.15975 8.77571 7.07536 9.27498 4.84825H1.35459C0.711417 4.84825 0.19003 4.32685 0.19003 3.68369C0.19003 3.04052 0.711417 2.51913 1.35459 2.51913H6.01284ZM21.6064 19.9875H16.0396L14.0871 25.0639C13.8563 25.6642 13.1825 25.9636 12.5821 25.7327C11.9818 25.5019 11.6824 24.828 11.9133 24.2277L17.7361 9.08844C18.1189 8.0931 19.5271 8.0931 19.9099 9.08844L25.7327 24.2277C25.9636 24.828 25.6642 25.5019 25.0639 25.7327C24.4636 25.9636 23.7898 25.6642 23.5589 25.0639L21.6064 19.9875ZM20.7106 17.6584L18.823 12.7506L16.9354 17.6584H20.7106Z" fill="white"/>
</svg>
