<svg width="23" height="23" viewBox="0 0 23 23" fill="none" xmlns="http://www.w3.org/2000/svg">
<g clip-path="url(#clip0_506_15)">
<path d="M19.1663 19.9674C15.345 23.3041 9.87191 23.7336 5.72028 21.2962C4.71816 20.7089 3.78945 19.9527 2.98193 19.0277C2.51573 18.4954 2.10829 17.9264 1.75588 17.3318C0.68036 15.5001 0.159087 13.4298 0.170093 11.3631C0.192104 8.14754 1.51725 4.95036 4.07946 2.71119C6.23419 0.828061 8.88813 -0.0492181 11.5311 0.00212763C13.5794 0.0388288 15.6203 0.629821 17.419 1.74209C18.4101 2.35141 19.3241 3.12227 20.128 4.03998C20.5648 4.53924 20.9539 5.06415 21.288 5.61107C24.1511 10.2325 23.4097 16.2563 19.1663 19.9674Z" fill="#F4F4F5"/>
<path d="M4.83789 4.00903C9.32626 0.0850996 16.0152 0.676945 19.8335 5.04452C23.6518 9.41209 23.2201 15.9776 18.7316 19.9015C14.2433 23.8254 7.4236 23.5993 3.60533 19.2318C-0.212942 14.8643 0.34948 7.93295 4.83789 4.00903Z" fill="#EDEDEC"/>
<path d="M10.9623 6.35601C10.1573 8.03025 8.13078 8.66234 6.45654 7.85734C4.7823 7.05234 4.06517 5.10107 4.87013 3.42683C5.67513 1.7526 7.69279 0.998986 9.36703 1.80399C11.0413 2.60899 11.7673 4.68177 10.9623 6.35601Z" fill="#D8D8D8"/>
<path opacity="0.06" d="M5.75389 4.38664C6.55889 2.7124 8.57655 1.95879 10.2508 2.76379C10.4362 2.85291 10.6099 2.95767 10.7713 3.07563C10.4418 2.54066 9.96491 2.09144 9.367 1.80399C7.69276 0.998986 5.67509 1.7526 4.87009 3.42683C4.1601 4.90351 4.63439 6.59553 5.90492 7.52663C5.34407 6.60762 5.24641 5.44212 5.75389 4.38664Z" fill="#040000"/>
<path d="M9.75351 9.80949C9.70095 9.55195 9.87525 9.30735 10.1327 9.25479C10.3903 9.20224 10.638 9.36076 10.6906 9.61826C10.7431 9.87579 10.5803 10.1333 10.3227 10.1858C10.0652 10.2384 9.80607 10.067 9.75351 9.80949Z" fill="#D8D8D8"/>
<path opacity="0.5" d="M16.3136 4.35496C16.261 4.09742 16.4353 3.85282 16.6928 3.80026C16.9503 3.74771 17.1981 3.90624 17.2506 4.16373C17.3032 4.42127 17.1403 4.6788 16.8828 4.73136C16.6252 4.78387 16.3661 4.61245 16.3136 4.35496Z" fill="white"/>
<path d="M12.7017 17.8964C13.0921 17.5551 13.6815 17.6154 14.0229 18.0058C14.3642 18.3962 14.334 18.9757 13.9436 19.317C13.5532 19.6583 12.9526 19.6302 12.6113 19.2398C12.27 18.8494 12.3113 18.2377 12.7017 17.8964Z" fill="#D8D8D8"/>
<path opacity="0.5" d="M2.62021 9.926C2.56765 9.66847 2.74195 9.42387 2.99944 9.37131C3.25698 9.31875 3.50472 9.47728 3.55728 9.73477C3.60984 9.99226 3.44695 10.2498 3.18941 10.3024C2.93188 10.355 2.67272 10.1835 2.62021 9.926Z" fill="white"/>
<path d="M21.0659 12.6545C20.8986 14.3009 19.3923 15.4441 17.7459 15.2768C16.0996 15.1094 14.9079 13.692 15.0752 12.0456C15.2426 10.3993 16.7046 9.15692 18.351 9.32426C19.9973 9.49164 21.2333 11.0082 21.0659 12.6545Z" fill="#D8D8D8"/>
<path d="M7.78248 14.8753C8.43974 16.013 8.00112 17.449 6.86334 18.1063C5.72556 18.7635 4.29965 18.4046 3.64239 17.2669C2.98514 16.1291 3.34923 14.6498 4.48702 13.9926C5.62475 13.3353 7.12523 13.7375 7.78248 14.8753Z" fill="#D8D8D8"/>
<path opacity="0.06" d="M5.06826 14.5697C5.8977 14.0905 6.91949 14.1749 7.66722 14.6964C6.96226 13.6974 5.56276 13.3713 4.48702 13.9927C3.34923 14.65 2.98514 16.1293 3.64239 17.267C3.82388 17.5811 4.06412 17.8356 4.34053 18.026C4.29942 17.9676 4.26021 17.9072 4.22364 17.8439C3.56639 16.7062 3.93048 15.2269 5.06826 14.5697Z" fill="#040000"/>
<path opacity="0.06" d="M15.7091 12.6722C15.8764 11.0258 17.3385 9.78347 18.9848 9.95084C19.5336 10.0066 20.0367 10.2125 20.4575 10.5229C19.9631 9.87003 19.2134 9.41201 18.351 9.32432C16.7046 9.15699 15.2426 10.3993 15.0752 12.0456C14.9645 13.1349 15.4488 14.1238 16.2659 14.7169C15.8473 14.1531 15.6313 13.4374 15.7091 12.6722Z" fill="#040000"/>
<path opacity="0.1" d="M11.4465 17.147C6.71367 17.147 2.53319 14.8082 0.00404839 11.2328C-0.117375 15.7125 2.49955 19.9627 6.91914 21.8677C12.7039 24.3612 19.4815 21.9367 21.9749 16.1519C22.6608 14.5608 22.9478 12.884 22.8863 11.2368C20.3569 14.8098 16.1777 17.147 11.4465 17.147Z" fill="#040000"/>
</g>
<defs>
<clipPath id="clip0_506_15">
<rect width="23" height="23" fill="white"/>
</clipPath>
</defs>
</svg>
