<svg width="37" height="33" viewBox="0 0 37 33" fill="none" xmlns="http://www.w3.org/2000/svg">
<path fill-rule="evenodd" clip-rule="evenodd" d="M13.8333 4.13964C15.1055 3.56952 16.2078 4.8574 15.8097 5.97561C14.4592 9.76986 15.289 14.0793 18.0923 16.8815C20.9098 19.698 25.2477 20.5257 29.0543 19.151C30.1619 18.751 31.4148 19.8424 30.8672 21.0844C30.851 21.1211 30.8347 21.1577 30.8182 21.1944C29.8436 23.3556 28.2846 25.388 26.2676 26.7507C24.1177 28.2031 21.5824 28.9791 18.9877 28.9791H18.9864C15.9691 28.9759 13.0468 27.9234 10.7206 26.0023C8.39428 24.0813 6.80887 21.411 6.23625 18.4493C5.66362 15.4876 6.13946 12.4191 7.58217 9.76973C8.94985 7.25812 11.2497 5.30634 13.7958 4.15646L13.8333 4.13964Z" fill="#2E6850"/>
</svg>
