<?xml version="1.0" encoding="iso-8859-1"?>
<!-- Uploaded to: SVG Repo, www.svgrepo.com, Generator: SVG Repo Mixer Tools -->
<svg height="800px" width="800px" version="1.1" id="Layer_1" xmlns="http://www.w3.org/2000/svg" xmlns:xlink="http://www.w3.org/1999/xlink" 
	 viewBox="0 0 512 512" xml:space="preserve">
<path style="fill:#C97629;" d="M248,0h16c8.84,0,16,7.16,16,16v464c0,8.84-7.16,16-16,16h-16c-8.84,0-16-7.16-16-16V16
	C232,7.16,239.16,0,248,0z"/>
<path style="fill:#A35425;" d="M176,504c0,4.416,3.584,8,8,8h144c4.416,0,8-3.584,8-8v-8c-0.264-4.768-3.08-9.016-7.36-11.12
	l-41.28-17.68c-4.904-1.928-10.096-3.008-15.36-3.2h-32c-5.256,0.168-10.456,1.224-15.36,3.12l-41.28,17.68
	c-4.304,2.12-7.128,6.408-7.36,11.2L176,504L176,504z"/>
<path style="fill:#FCD063;" d="M232,40H80c-5.04,0-9.776,2.368-12.8,6.4l-48,64c-4.264,5.688-4.264,13.512,0,19.2l48,64
	c3.024,4.032,7.76,6.4,12.8,6.4h152V40z"/>
<path id="SVGCleanerId_0" style="fill:#FCD063;" d="M280,280h152c5.04,0,9.776-2.368,12.8-6.4l48-64
	c4.264-5.688,4.264-13.512,0-19.2l-48-64c-3.024-4.032-7.76-6.4-12.8-6.4H280V280z"/>
<g>
	<path id="SVGCleanerId_0_1_" style="fill:#FCD063;" d="M280,280h152c5.04,0,9.776-2.368,12.8-6.4l48-64
		c4.264-5.688,4.264-13.512,0-19.2l-48-64c-3.024-4.032-7.76-6.4-12.8-6.4H280V280z"/>
</g>
<g>
	<path style="fill:#F6B545;" d="M456,218.24l-22.4,26.56c-6.008,7.024-14.76,11.104-24,11.2H328c-13.256,0-24-10.744-24-24l0,0v-88
		c0-13.256-10.744-24-24-24l0,0v160h152c5.04,0,9.776-2.368,12.8-6.4l48-64c2.08-2.768,3.2-6.136,3.2-9.6
		C480.632,199.888,465.992,206.56,456,218.24z"/>
	<path style="fill:#F6B545;" d="M56,138.24l22.4,26.56c6.008,7.024,14.76,11.104,24,11.2H184c13.256,0,24-10.744,24-24V64
		c0-13.256,10.744-24,24-24l0,0v160H80c-5.04,0-9.776-2.368-12.8-6.4l-48-64c-2.08-2.768-3.2-6.136-3.2-9.6
		C31.368,119.888,46.008,126.56,56,138.24z"/>
</g>
<g>
	<path style="fill:#A35425;" d="M336,176h80c4.416,0,8,3.584,8,8l0,0c0,4.416-3.584,8-8,8h-80c-4.416,0-8-3.584-8-8l0,0
		C328,179.584,331.584,176,336,176z"/>
	<path style="fill:#A35425;" d="M336,208h80c4.416,0,8,3.584,8,8l0,0c0,4.416-3.584,8-8,8h-80c-4.416,0-8-3.584-8-8l0,0
		C328,211.584,331.584,208,336,208z"/>
	<path style="fill:#A35425;" d="M104,96h80c4.416,0,8,3.584,8,8l0,0c0,4.416-3.584,8-8,8h-80c-4.416,0-8-3.584-8-8l0,0
		C96,99.584,99.584,96,104,96z"/>
	<path style="fill:#A35425;" d="M104,128h80c4.416,0,8,3.584,8,8l0,0c0,4.416-3.584,8-8,8h-80c-4.416,0-8-3.584-8-8l0,0
		C96,131.584,99.584,128,104,128z"/>
</g>
<path style="fill:#7F4122;" d="M184,512h144c4.416,0,8-3.584,8-8v-8c-0.264-4.768-3.08-9.016-7.36-11.12l-41.28-17.68
	c-4.904-1.928-10.096-3.008-15.36-3.2h-16l3.84,5.04c5.608,7.392,4.168,17.928-3.216,23.536c-2.96,2.248-6.584,3.448-10.304,3.424
	H176v8C176,508.416,179.584,512,184,512z"/>
<path style="fill:#B06328;" d="M280,464.96V24c-13.256,0-24,10.744-24,24v416h16C274.688,464.064,277.368,464.384,280,464.96z"/>
</svg>