<?xml version="1.0" encoding="utf-8"?>
<!-- Uploaded to: SVG Repo, www.svgrepo.com, Generator: SVG Repo Mixer Tools -->
<svg fill="#000000" width="800px" height="800px" viewBox="0 0 32 32" version="1.1" xmlns="http://www.w3.org/2000/svg">
<title>site</title>
<path d="M15.999 1.84c-2.888 0-5.592 0.86-7.832 2.345l4.159 4.159c2.311-1.105 5.033-1.105 7.345 0l4.159-4.159c-2.239-1.484-4.942-2.345-7.831-2.345v0zM4.186 8.167c-1.485 2.24-2.345 4.943-2.345 7.831s0.86 5.592 2.345 7.832l4.159-4.159c-1.105-2.311-1.105-5.033 0-7.345l-4.159-4.159zM27.814 8.167l-4.159 4.159c1.105 2.311 1.105 5.034 0 7.345l4.159 4.159c1.485-2.24 2.345-4.943 2.345-7.832-0.001-2.887-0.861-5.591-2.345-7.831v0zM12.327 23.655l-4.159 4.159c2.24 1.484 4.943 2.345 7.832 2.345 2.888 0 5.592-0.86 7.831-2.345l-4.159-4.159c-2.312 1.105-5.034 1.105-7.346 0v0zM20.247 16.002c0 2.345-1.901 4.248-4.248 4.248-2.345 0-4.248-1.901-4.248-4.248 0-2.345 1.901-4.248 4.248-4.248s4.248 1.901 4.248 4.248z"></path>
</svg>